<svg xmlns="http://www.w3.org/2000/svg" width="540" height="300" viewBox="0 0 540 300"><title>Ottawa-Civic-Tech-Logo</title><path d="M116.71,99.13a23.89,23.89,0,0,1,1.54-8.57,21.81,21.81,0,0,1,4.29-7,19.48,19.48,0,0,1,6.86-4.77,22.74,22.74,0,0,1,9-1.75A21.87,21.87,0,0,1,150,80a20,20,0,0,1,7.59,8,23.76,23.76,0,0,1,2.58,11.09,24.09,24.09,0,0,1-2.58,11.17,20,20,0,0,1-7.59,8.05,21.92,21.92,0,0,1-11.58,3,22.49,22.49,0,0,1-9-1.78,19.71,19.71,0,0,1-6.86-4.79,21.72,21.72,0,0,1-4.29-7.07A24.14,24.14,0,0,1,116.71,99.13Zm9.53,0a15.46,15.46,0,0,0,3.29,10,11.77,11.77,0,0,0,17.84,0,15.51,15.51,0,0,0,3.27-10,15.29,15.29,0,0,0-3.27-9.91,11.83,11.83,0,0,0-17.84,0A15.23,15.23,0,0,0,126.24,99.13Z" fill="#4d4d4d"/><path d="M164.88,86V78.06h7V66.4h9.19V78.06h8.59V86h-8.59v22.2a5.78,5.78,0,0,0,1.07,3.62,3.55,3.55,0,0,0,3,1.39,6.47,6.47,0,0,0,2.39-.45,4.54,4.54,0,0,0,1.71-1l2.18,6.93q-2.86,2.73-8.67,2.73-5.3,0-8.08-2.81t-2.78-8.07V86Z" fill="#4d4d4d"/><path d="M196.89,86V78.06h7V66.4h9.19V78.06h8.59V86h-8.59v22.2a5.78,5.78,0,0,0,1.07,3.62,3.55,3.55,0,0,0,3,1.39,6.47,6.47,0,0,0,2.39-.45,4.52,4.52,0,0,0,1.71-1l2.18,6.93q-2.86,2.73-8.67,2.73-5.3,0-8.08-2.81t-2.78-8.07V86Z" fill="#4d4d4d"/><path d="M229.8,107.31a14.37,14.37,0,0,1,1.3-6.25,11.37,11.37,0,0,1,3.44-4.34,15.76,15.76,0,0,1,4.68-2.43,16.89,16.89,0,0,1,5.21-.82q9,0,13.66,5.54V92.77A6.86,6.86,0,0,0,255.37,87a11.41,11.41,0,0,0-7.17-2.1,17.55,17.55,0,0,0-12.51,5.19L232,83.87A24.7,24.7,0,0,1,249.69,77a25.57,25.57,0,0,1,6.74.83A17.84,17.84,0,0,1,262,80.39a11.62,11.62,0,0,1,3.89,4.79,16.9,16.9,0,0,1,1.41,7.16v28h-9.18v-4.64a16,16,0,0,1-5.93,4.22,19.81,19.81,0,0,1-7.73,1.48,15.46,15.46,0,0,1-5.19-.9,16.23,16.23,0,0,1-4.7-2.6,12.13,12.13,0,0,1-3.44-4.44A14.2,14.2,0,0,1,229.8,107.31Zm9.18.17a6.61,6.61,0,0,0,2.55,5.41,10,10,0,0,0,6.49,2.05,15,15,0,0,0,5.83-1.12,9.84,9.84,0,0,0,4.24-3.2v-6.35a9.88,9.88,0,0,0-4.24-3.2A15,15,0,0,0,248,99.94a10,10,0,0,0-6.49,2.06A6.68,6.68,0,0,0,239,107.48Z" fill="#4d4d4d"/><path d="M272.54,78.06h9.53L291,108.78l10.08-30.72h8L319.2,108.8l8.93-30.73h9.53l-13.12,42.26h-9.64L305.27,90l-9.61,30.36h-10Z" fill="#4d4d4d"/><path d="M342.11,107.31a14.37,14.37,0,0,1,1.3-6.25,11.37,11.37,0,0,1,3.44-4.34,15.76,15.76,0,0,1,4.68-2.43,16.89,16.89,0,0,1,5.21-.82q9,0,13.66,5.54V92.77A6.86,6.86,0,0,0,367.68,87a11.41,11.41,0,0,0-7.17-2.1A17.55,17.55,0,0,0,348,90.13l-3.73-6.26A24.7,24.7,0,0,1,362,77a25.57,25.57,0,0,1,6.74.83,17.84,17.84,0,0,1,5.54,2.56,11.62,11.62,0,0,1,3.89,4.79,16.9,16.9,0,0,1,1.41,7.16v28H370.4v-4.64a16,16,0,0,1-5.93,4.22,19.81,19.81,0,0,1-7.73,1.48,15.46,15.46,0,0,1-5.19-.9,16.23,16.23,0,0,1-4.7-2.6,12.13,12.13,0,0,1-3.44-4.44A14.2,14.2,0,0,1,342.11,107.31Zm9.18.17a6.61,6.61,0,0,0,2.55,5.41,10,10,0,0,0,6.49,2.05,15,15,0,0,0,5.83-1.12,9.84,9.84,0,0,0,4.24-3.2v-6.35a9.88,9.88,0,0,0-4.24-3.2,15,15,0,0,0-5.83-1.12,10,10,0,0,0-6.49,2.06A6.68,6.68,0,0,0,351.3,107.48Z" fill="#4d4d4d"/><path d="M307.35,166.85a23.89,23.89,0,0,1,2.78-11.45,21,21,0,0,1,7.86-8.26,21.6,21.6,0,0,1,11.35-3.06q9.64,0,15.49,6.66t5.85,17V170H317.15a13.34,13.34,0,0,0,4.25,8.58A13.58,13.58,0,0,0,331,182a19.23,19.23,0,0,0,6.7-1.26,15.34,15.34,0,0,0,5.65-3.51l4.27,6.21a21.42,21.42,0,0,1-7.76,4.67,29.17,29.17,0,0,1-9.82,1.62q-9.86,0-16.28-6.35T307.35,166.85Zm9.71-3.47h24.52a13,13,0,0,0-.82-4,13.4,13.4,0,0,0-2.13-3.72,9.85,9.85,0,0,0-3.81-2.81,13.5,13.5,0,0,0-5.48-1.05,13,13,0,0,0-5.26,1,10,10,0,0,0-3.79,2.77,14.66,14.66,0,0,0-2.24,3.69A13.38,13.38,0,0,0,317.06,163.39Z" fill="#4d4d4d"/><path d="M357,166.85q0-9.89,6.31-16.32t16.19-6.44q10.9,0,16.66,7.73l-6.24,5.76a11.54,11.54,0,0,0-10-5.1,12.23,12.23,0,0,0-9.51,4,14.85,14.85,0,0,0-3.63,10.37,15.07,15.07,0,0,0,3.63,10.46,12.17,12.17,0,0,0,9.51,4,11.72,11.72,0,0,0,10-5.14l6.24,5.75q-5.8,7.78-16.66,7.78-9.89,0-16.19-6.46T357,166.85Z" fill="#4d4d4d"/><path d="M403,190V114.72h9.45v37.79a20.64,20.64,0,0,1,6.55-5,19.4,19.4,0,0,1,8.88-2.07q7,0,10.5,3.52t3.52,10.28V190h-9.45V162.67q0-4.79-2.26-6.79t-6.57-2a12.61,12.61,0,0,0-6.35,1.69,15.52,15.52,0,0,0-4.81,4.15V190Z" fill="#4d4d4d"/><path d="M55.73,171.31a33.94,33.94,0,0,1,0-25.27,28.7,28.7,0,0,1,6.66-9.86,30.66,30.66,0,0,1,10-6.3,33.6,33.6,0,0,1,12.39-2.28q15.69,0,24.13,13.46l-9,4.59a17.55,17.55,0,0,0-6.33-6.33,16.78,16.78,0,0,0-8.79-2.45A19.64,19.64,0,0,0,70,143q-5.89,6.16-5.89,15.64T70,174.32a19.64,19.64,0,0,0,14.81,6.15A16.9,16.9,0,0,0,93.61,178a17.32,17.32,0,0,0,6.31-6.35l9,4.59q-8.57,13.46-24.13,13.46a33.6,33.6,0,0,1-12.39-2.28,30.66,30.66,0,0,1-10-6.3A28.72,28.72,0,0,1,55.73,171.31Z" fill="#4d4d4d"/><path d="M118.21,188.65V145.19h9.45v43.46Z" fill="#4d4d4d"/><path d="M134.13,145.19h10.06l12.7,32.56,12.7-32.56h10.15L162,188.65h-10.2Z" fill="#4d4d4d"/><path d="M187.14,188.65V145.19h9.45v43.46Z" fill="#4d4d4d"/><path d="M203.38,166.85q0-9.89,6.31-16.33t16.19-6.44q10.9,0,16.66,7.73l-6.24,5.76a11.54,11.54,0,0,0-10-5.1,12.23,12.23,0,0,0-9.51,4,14.85,14.85,0,0,0-3.63,10.37,15.07,15.07,0,0,0,3.63,10.46,12.17,12.17,0,0,0,9.51,4,11.73,11.73,0,0,0,10-5.14l6.24,5.76q-5.8,7.78-16.66,7.78-9.89,0-16.19-6.46T203.38,166.85Z" fill="#4d4d4d"/><path d="M253.63,152.06v-8.12h48.89v8.13H283.93v56.58h-9.24V152.06Z" fill="#4d4d4d"/><path d="M453.65,190v-8.17h37.12V190Z" fill="#4d4d4d"/><rect x="384" y="244.64" width="12" height="9" fill="#ffcf01"/><rect x="348" y="244.64" width="12" height="9" fill="#6a0d69"/><rect x="360" y="244.64" width="12" height="9" fill="#65c298"/><rect x="336" y="244.64" width="12" height="9" fill="#e81e26"/><rect x="420" y="244.64" width="12" height="9" fill="#00954c"/><rect x="396" y="244.64" width="12" height="9" fill="#0075b2"/><rect x="408" y="244.64" width="12" height="9" fill="#f68b1f"/><rect x="432" y="244.64" width="12" height="9" fill="#ec008c"/><rect x="444" y="244.64" width="12" height="9" fill="#00bbd6"/><rect x="372" y="244.64" width="12" height="9" fill="#767769"/><rect y="244.64" width="12" height="9" fill="#65c298"/><rect x="12" y="244.64" width="12" height="9" fill="#e81e26"/><rect x="24" y="244.64" width="12" height="9" fill="#00954c"/><rect x="36" y="244.64" width="12" height="9" fill="#0075b2"/><rect x="48" y="244.64" width="12" height="9" fill="#f68b1f"/><rect x="72" y="244.64" width="12" height="9" fill="#ec008c"/><rect x="84" y="244.64" width="12" height="9" fill="#00bbd6"/><rect x="60" y="244.64" width="12" height="9" fill="#767769"/><rect x="456" y="244.64" width="12" height="9" fill="#ffcf01"/><rect x="468" y="244.64" width="12" height="9" fill="#6a0d69"/><rect x="480" y="244.64" width="12" height="9" fill="#65c298"/><rect x="492" y="244.64" width="12" height="9" fill="#e81e26"/><rect x="504" y="244.64" width="12" height="9" fill="#00954c"/><rect x="516" y="244.64" width="12" height="9" fill="#f68b1f"/><rect x="528" y="244.64" width="12" height="9" fill="#00bbd6"/><rect x="216" y="244.64" width="12" height="9" fill="#ffcf01"/><rect x="228" y="244.64" width="12" height="9" fill="#6a0d69"/><rect x="192" y="244.64" width="12" height="9" fill="#65c298"/><rect x="180" y="244.64" width="12" height="9" fill="#e81e26"/><rect x="252" y="244.64" width="12" height="9" fill="#ec008c"/><rect x="312" y="244.64" width="12" height="9" fill="#00954c"/><rect x="264" y="244.64" width="12" height="9" fill="#00bbd6"/><rect x="276" y="244.64" width="12" height="9" fill="#0075b2"/><rect x="324" y="244.64" width="12" height="9" fill="#f68b1f"/><rect x="288" y="244.64" width="12" height="9" fill="#ec008c"/><rect x="300" y="244.64" width="12" height="9" fill="#767769"/><rect x="156" y="244.64" width="12" height="9" fill="#ffcf01"/><rect x="108" y="244.64" width="12" height="9" fill="#6a0d69"/><rect x="144" y="244.64" width="12" height="9" fill="#65c298"/><rect x="132" y="244.64" width="12" height="9" fill="#e81e26"/><rect x="96" y="244.64" width="12" height="9" fill="#00954c"/><rect x="120" y="244.64" width="12" height="9" fill="#0075b2"/><rect x="168" y="244.64" width="12" height="9" fill="#f68b1f"/><rect x="204" y="244.64" width="12" height="9" fill="#00bbd6"/><rect x="240" y="244.64" width="12" height="9" fill="#767769"/></svg>